<svg xmlns="http://www.w3.org/2000/svg" viewBox="0 0 448 512"><path d="M224 202.7c-31.1 0-56.3 25.2-56.3 56.3s25.2 56.3 56.3 56.3 56.3-25.2 56.3-56.3-25.2-56.3-56.3-56.3zm124.7-41c0 8.8-7.2 16-16 16s-16-7.2-16-16 7.2-16 16-16 16 7.2 16 16zm76.1 41c-.1-29.2-1.2-58.2-7.2-87.2-6.6-31.6-25.6-58.9-51.8-79.1-27.1-20.9-61.8-32.2-96.5-33.8-32.7-1.6-131-1.6-163.6 0-34.8 1.6-69.5 12.9-96.5 33.8C32 57.5 13.1 84.8 6.5 116.4.5 145.4-.6 174.4 0 203.6c.6 30.1 1.4 60.3 7.3 90.1 6.6 31.6 25.6 58.9 51.8 79.1 27.1 20.9 61.8 32.2 96.5 33.8 32.7 1.6 131 1.6 163.6 0 34.8-1.6 69.5-12.9 96.5-33.8 26.2-20.2 45.2-47.5 51.8-79.1 5.9-29.8 6.7-60 7.3-90.1.6-29.2-.5-58.2-.5-87.4zM398.8 388c-12.4 30.2-38.1 55.1-70.8 66.5-30.7 10.6-63.5 12.7-95.9 13.3-30.8.6-123.3.6-154.1 0-32.4-.6-65.2-2.7-95.9-13.3-32.7-11.4-58.4-36.3-70.8-66.5-11.1-27.2-13.2-56.6-13.8-85.2-.6-30.2-.6-60.3 0-90.5.6-28.6 2.7-58 13.8-85.2 12.4-30.2 38.1-55.1 70.8-66.5 30.7-10.6 63.5-12.7 95.9-13.3 30.8-.6 123.3-.6 154.1 0 32.4.6 65.2 2.7 95.9 13.3 32.7 11.4 58.4 36.3 70.8 66.5 11.1 27.2 13.2 56.6 13.8 85.2.6 30.2.6 60.3 0 90.5-.6 28.6-2.7 58-13.8 85.2z"/></svg>